<?xml version="1.0" encoding="UTF-8"?>
<svg width="179px" height="56px" viewBox="0 0 179 56" version="1.1" xmlns="http://www.w3.org/2000/svg" xmlns:xlink="http://www.w3.org/1999/xlink">
    <!-- Generator: Sketch 63.1 (92452) - https://sketch.com -->
    <title>Allsup Logo Copy</title>
    <desc>Created with Sketch.</desc>
    <g stroke="none" stroke-width="1" fill="none" fill-rule="evenodd">
        <g>
            <path d="M58.1673737,25.8590297 C59.8389521,21.2266804 61.6210941,16.3130009 63.4037408,11.4548707 L63.5148092,11.4548707 L68.4164567,25.8590297 L58.1673737,25.8590297 Z M102.976379,35.8043989 L102.976379,1.46137578 C101.082664,2.13999856 97.6297007,3.09969559 94.733089,3.43939097 L94.733089,4.79458864 C98.2428484,5.07668683 98.5768107,5.24615054 98.5768107,9.08749853 L98.5768107,35.8043989 C98.5768107,39.4819149 98.0878576,39.8610324 94.7050695,40.1948401 C91.2715434,39.8610324 90.8350953,39.4819149 90.8350953,35.8043989 L90.8350953,3.79495757 C88.9418851,4.4725564 85.488922,5.43430133 82.5920579,5.77246078 L82.5920579,7.12893839 C86.1018172,7.41026862 86.436032,8.16312777 86.436032,12.0034518 L86.436032,35.8043989 C86.436032,39.3342102 85.9879722,39.7635012 82.9628746,40.0842535 C82.85635,40.0957729 82.7965246,40.0967968 82.6791455,40.0896292 C82.6425435,40.0906531 82.6031647,40.0896292 82.5635335,40.0865573 C82.4729118,40.0765738 82.382795,40.0686382 82.2954549,40.0609586 C82.1654545,40.0476473 82.0367162,40.0312641 81.914541,40.0179527 C81.8650651,40.0130889 81.8155892,40.0069452 81.7686376,39.9997776 C81.2180921,39.9314289 80.7445371,39.8438812 80.3295454,39.7189593 L80.3295454,39.7235671 C78.5552287,39.2008407 77.8163719,37.9910439 76.4926393,34.3877643 C72.9275981,24.5586133 69.1967118,13.8273626 65.7424866,4.11238203 L64.0151215,4.62102914 L52.4864808,34.2746178 C50.5379888,39.2443586 49.7577337,39.5840539 46.2487316,40.0906531 L46.2487316,41.6741916 L58.3352383,41.6741916 L58.3352383,40.0906531 C54.1570495,39.6972004 53.6559799,39.1322361 54.8822753,35.5722183 C55.6064913,33.1997264 56.4407659,30.8297944 57.3320893,28.2873268 L69.1967118,28.2873268 C70.4219975,31.7316383 71.5364672,34.7840329 72.2596736,36.9855251 C72.9836372,39.1867614 72.4828199,39.6398592 68.9735654,40.0906531 L68.9735654,41.6741916 L80.3295454,41.6741916 L80.3295454,41.6764955 L106.98746,41.6764955 L106.98746,40.2089194 C103.423429,39.8702479 102.976379,39.5308085 102.976379,35.8043989 Z M158.973499,22.0783507 C160.476708,20.9473981 162.759668,19.7043229 164.542062,19.7043229 C168.608173,19.7043229 172.006359,23.094621 172.006359,29.1382292 C172.006359,35.5207648 168.885843,39.5886617 164.208857,39.5886617 C162.314132,39.5886617 160.197775,38.684002 158.973499,37.3846096 L158.973499,22.0783507 Z M162.815454,42.3540944 C170.055847,41.0006886 176.684608,35.5207648 176.684608,26.9943341 C176.684608,21.3997279 173.009255,16.3163287 166.826283,16.3163287 C166.157349,16.3163287 165.098918,16.5986829 164.095012,17.1641592 L158.973499,20.2145059 L158.973499,15.7521323 C156.355568,16.8265118 153.237577,17.7862088 150.896055,18.1799175 L150.896055,19.5369071 C154.349775,19.988213 154.571659,20.1011035 154.571659,23.7727318 L154.571659,49.9671618 C154.571659,53.6956193 154.071095,54.0350587 150.506558,54.3719382 L150.506558,55.8976235 L163.70804,55.8976235 L163.70804,54.3719382 C159.361481,53.9789974 158.973499,53.6956193 158.973499,49.4042453 L158.973499,41.339616 C159.697211,41.7330688 161.200924,42.2985451 162.815454,42.3540944 Z M152.846314,38.9102949 L151.287066,38.7979164 C149.171214,38.684002 148.724921,38.2887573 148.724921,35.4644476 L148.724921,16.5986829 C147.889889,16.7686586 146.551768,16.9939276 144.994035,17.1641592 C143.377738,17.3904522 141.484023,17.5606838 139.980814,17.6159771 L139.980814,18.9143456 L141.986102,19.254041 C143.823779,19.5369071 144.324596,19.8755785 144.324596,22.9256693 L144.324596,36.0859851 C142.430376,37.9500859 140.315281,38.7979164 138.309993,38.7979164 C135.801616,38.7979164 133.408598,37.4422068 133.408598,32.4706741 L133.408598,24.8453193 C133.408598,21.0047393 133.408598,18.3493812 133.575705,16.5986829 C132.628595,16.7686586 131.124881,16.9939276 129.620663,17.2202205 C128.117706,17.3904522 126.778828,17.5606838 125.610339,17.6159771 L125.610339,18.9143456 L127.168577,19.254041 C128.562989,19.5929684 129.007263,19.8755785 129.007263,22.868584 L129.007263,33.9387622 C129.007263,40.0399676 132.182302,42.3540944 135.913189,42.3540944 C137.41867,42.3540944 138.587916,41.9048364 140.202698,40.9430914 C141.762956,39.9841624 143.04529,38.9648203 144.324596,38.0040993 L144.324596,42.0154229 L144.659063,42.3540944 C145.718251,42.0732761 147.110644,41.6212022 148.557057,41.2259576 C150.062537,40.8304569 151.621028,40.4907616 152.846314,40.3212979 L152.846314,38.9102949 Z M117.813846,26.8799077 C115.307236,25.8060403 113.080316,24.4508426 113.080316,21.9664842 C113.080316,19.762944 114.581758,18.067283 116.699377,18.067283 C119.428376,18.067283 121.379897,20.3273964 122.437571,23.6593293 L123.884741,23.3214259 C123.717633,21.9078631 123.104233,18.5761861 122.659202,17.2778177 C121.488946,16.8265118 119.986242,16.2615474 117.702778,16.3163287 C112.578489,16.3163287 109.236342,19.6492856 109.236342,23.6037801 C109.236342,27.9517273 112.857169,29.816084 116.199317,31.3975746 C118.983345,32.696967 120.597623,34.0521647 120.597623,36.5367791 C120.597623,38.9102949 118.704665,40.4907616 116.64258,40.4907616 C113.3022,40.4907616 110.796347,37.2156579 109.792441,33.4879683 L108.345776,33.7700665 C108.345776,35.8043989 108.845331,39.644723 109.236342,40.4354683 C110.239491,41.2830428 112.801635,42.3540944 115.642208,42.3540944 C120.097563,42.3540944 124.829831,39.7002723 124.829831,34.5602998 C124.829831,30.6621226 121.991278,28.6300941 117.813846,26.8799077 L117.813846,26.8799077 Z" id="Fill-1" fill="#FFFFFF"></path>
            <path d="M177.199982,16.1487325 C177.266555,16.1487325 177.329983,16.146877 177.387645,16.1429011 C177.44819,16.1378649 177.500085,16.125407 177.545953,16.1052623 C177.592606,16.0845874 177.628776,16.0533101 177.656296,16.0111652 C177.684079,15.9682252 177.697446,15.9091163 177.697446,15.8335736 C177.697446,15.7688985 177.685127,15.7177415 177.660228,15.6803677 C177.635591,15.6408735 177.604139,15.6127769 177.565872,15.591837 C177.526819,15.5719573 177.482001,15.557909 177.431415,15.5507523 C177.381092,15.5433306 177.331556,15.5393547 177.282019,15.5393547 L176.893064,15.5393547 L176.893064,16.1487325 L177.199982,16.1487325 Z M177.329983,15.2960277 C177.55565,15.2960277 177.721035,15.3418834 177.829806,15.4325346 C177.937529,15.5239811 177.992045,15.6620784 177.992045,15.8452364 C177.992045,16.018587 177.944605,16.1458168 177.848677,16.2263957 C177.754584,16.3067095 177.635591,16.3541556 177.494581,16.3682039 L178.034768,17.2193183 L177.7192,17.2193183 L177.2047,16.3915294 L176.893064,16.3915294 L176.893064,17.2193183 L176.598726,17.2193183 L176.598726,15.2960277 L177.329983,15.2960277 Z M175.997209,16.8116528 C176.065093,16.9836781 176.157876,17.132643 176.278441,17.2582825 C176.397434,17.3852472 176.538706,17.4835853 176.701207,17.5556822 C176.864233,17.6277791 177.040626,17.6632974 177.231696,17.6632974 C177.418048,17.6632974 177.592606,17.6277791 177.753535,17.5556822 C177.914464,17.4835853 178.054687,17.3852472 178.174729,17.2582825 C178.294246,17.132643 178.388339,16.9836781 178.456223,16.8116528 C178.523845,16.6409528 178.557393,16.4543491 178.557393,16.2513115 C178.557393,16.0541053 178.523845,15.8712124 178.456223,15.7005124 C178.388339,15.5314028 178.294246,15.3842933 178.174729,15.258919 C178.054687,15.1338096 177.914464,15.0362668 177.753535,14.9652301 C177.592606,14.892073 177.418048,14.8565547 177.231696,14.8565547 C177.040626,14.8565547 176.864233,14.892073 176.701207,14.9652301 C176.538706,15.0362668 176.397434,15.1338096 176.278441,15.258919 C176.157876,15.3842933 176.065093,15.5314028 175.997209,15.7005124 C175.929849,15.8712124 175.896301,16.0541053 175.896301,16.2513115 C175.896301,16.4543491 175.929849,16.6409528 175.997209,16.8116528 Z M175.730654,15.604825 C175.817147,15.4044381 175.934567,15.2310874 176.082653,15.0850382 C176.231788,14.9376637 176.404511,14.8228918 176.601347,14.7393972 C176.799494,14.6556376 177.008912,14.6137578 177.231696,14.6137578 C177.453694,14.6137578 177.661014,14.6556376 177.857589,14.7393972 C178.053639,14.8228918 178.225314,14.9376637 178.372089,15.0850382 C178.519127,15.2310874 178.636023,15.4044381 178.722778,15.604825 C178.808484,15.8036216 178.852517,16.0191171 178.852517,16.2513115 C178.852517,16.4890722 178.808484,16.7077485 178.722778,16.9091957 C178.636023,17.1106429 178.519127,17.2845236 178.372089,17.4329584 C178.225314,17.5808631 178.053639,17.6964301 177.857589,17.7783343 C177.661014,17.8607687 177.453694,17.9018533 177.231696,17.9018533 C177.008912,17.9018533 176.799494,17.8607687 176.601347,17.7783343 C176.404511,17.6964301 176.231788,17.5808631 176.082653,17.4329584 C175.934567,17.2845236 175.817147,17.1106429 175.730654,16.9091957 C175.643637,16.7077485 175.600653,16.4890722 175.600653,16.2513115 C175.600653,16.0191171 175.643637,15.8036216 175.730654,15.604825 L175.730654,15.604825 Z" id="Fill-12" fill="#FFFFFF"></path>
            <polygon id="Fill-13" fill="#FFFFFF" points="47.0851471 55.1855819 52.0298231 55.1855819 52.0298231 55.8976235 46.2487316 55.8976235 46.2487316 47.1293688 47.0851471 47.1293688"></polygon>
            <path d="M53.3524182,49.9765709 L53.3524182,55.8976235 L52.5160028,55.8976235 L52.5160028,49.9765709 L53.3524182,49.9765709 Z M53.3524182,47.7236842 L53.3524182,48.9078947 L52.5160028,48.9078947 L52.5160028,47.7236842 L53.3524182,47.7236842 Z" id="Combined-Shape" fill="#FFFFFF"></path>
            <path d="M95.5732575,49.9765709 L95.5732575,55.8976235 L94.7368421,55.8976235 L94.7368421,49.9765709 L95.5732575,49.9765709 Z M95.5732575,47.7236842 L95.5732575,48.9078947 L94.7368421,48.9078947 L94.7368421,47.7236842 L95.5732575,47.7236842 Z" id="Combined-Shape-Copy" fill="#FFFFFF"></path>
            <path d="M55.6813576,50.2141944 L55.6813576,55.8976235 L54.9128241,55.8976235 L54.9128241,50.2141944 L53.8364142,50.2141944 L53.8364142,49.5617691 L54.9128241,49.5617691 L54.9128241,48.9844451 C54.9128241,48.7139776 54.9331434,48.4641566 54.9737821,48.2349819 C55.0144207,48.0060653 55.0915827,47.8094086 55.2052681,47.6455281 C55.3192106,47.4813894 55.4761067,47.3546723 55.6756991,47.2643445 C55.8750342,47.1745328 56.1299261,47.1293688 56.4398601,47.1293688 C56.5540599,47.1293688 56.6597718,47.1334981 56.7577675,47.1414986 C56.8557633,47.1497571 56.9658477,47.1618869 57.0882781,47.178404 L57.0882781,47.8411524 C56.9820518,47.8256676 56.884056,47.8117313 56.7945481,47.7998597 C56.704783,47.787988 56.6150178,47.7820522 56.5252527,47.7820522 C56.3133144,47.7820522 56.1502454,47.8143121 56.0360456,47.8801224 C55.9221031,47.9456746 55.8382537,48.0331636 55.7852691,48.1438798 C55.7322845,48.2543379 55.7016769,48.3833777 55.6934463,48.5309992 C55.6854729,48.6775884 55.6813576,48.8373397 55.6813576,49.0092207 L55.6813576,49.5617691 L56.9290672,49.5617691 L56.9290672,50.2141944 L55.6813576,50.2141944" id="Fill-15" fill="#FFFFFF"></path>
            <path d="M61.6176022,51.3473731 C61.5275058,51.0825907 61.3995392,50.8477358 61.2346925,50.6428084 C61.0695983,50.4386419 60.8693566,50.2737869 60.6334723,50.149258 C60.3975881,50.0249827 60.1305166,49.9628451 59.8320104,49.9628451 C59.5253361,49.9628451 59.2543044,50.0249827 59.0184202,50.149258 C58.7825359,50.2737869 58.5822942,50.4386419 58.4172,50.6428084 C58.2523533,50.8477358 58.1206739,51.084366 58.0224094,51.3532064 C57.924145,51.6220468 57.8590478,51.8972278 57.8278606,52.1779885 L61.7651227,52.1779885 C61.7572021,51.8893655 61.7079461,51.6124091 61.6176022,51.3473731 Z M57.9399861,53.669799 C58.0144889,53.9634944 58.1345349,54.2265015 58.2993816,54.4598347 C58.4644758,54.6929142 58.6728856,54.886175 58.9243635,55.038856 C59.1758413,55.1915371 59.4783078,55.2681312 59.8322579,55.2681312 C60.3745689,55.2681312 60.7990616,55.1235661 61.1057358,54.833675 C61.4121626,54.5442911 61.6242852,54.1582769 61.742351,53.675886 L62.4819336,53.675886 C62.3247599,54.3834941 62.0361544,54.930559 61.6163646,55.3175877 C61.1963273,55.7046164 60.6015425,55.8976235 59.8322579,55.8976235 C59.3533114,55.8976235 58.9392145,55.8108844 58.5897197,55.6384208 C58.2402249,55.4654499 57.9558272,55.2280588 57.7360316,54.9262474 C57.5159885,54.6246896 57.3531219,54.2746899 57.2471844,53.8767554 C57.1412469,53.47806 57.0882781,53.0580603 57.0882781,52.6154882 C57.0882781,52.2051261 57.1412469,51.8033873 57.2471844,51.4090035 C57.3531219,51.0148733 57.5159885,50.6630982 57.7357841,50.3534245 C57.9555797,50.0434972 58.2402249,49.7944394 58.5897197,49.604983 C58.9387195,49.4162875 59.3530639,49.3214325 59.8320104,49.3214325 C60.3183824,49.3214325 60.734707,49.4218672 61.079994,49.6232439 C61.425281,49.8243669 61.705966,50.087374 61.9218013,50.4130259 C62.1378841,50.7386779 62.2928301,51.1127718 62.3871343,51.5345469 C62.4814385,51.9573364 62.5202988,52.3851985 62.5047052,52.8196547 L57.8278606,52.8196547 C57.8278606,53.0928067 57.8652358,53.3763572 57.9399861,53.669799 L57.9399861,53.669799 Z" id="Fill-16" fill="#FFFFFF"></path>
            <path d="M70.4061681,51.2939995 C70.6580635,51.2939995 70.8979027,51.2552875 71.1256859,51.1776056 C71.3534691,51.0996655 71.5525228,50.9868847 71.7233602,50.8392632 C71.8939411,50.6918997 72.0304057,50.5138248 72.1319847,50.3047803 C72.2335637,50.096252 72.2846097,49.8564961 72.2846097,49.5862867 C72.2846097,49.0456099 72.1299326,48.6195205 71.820835,48.3085346 C71.5119938,47.9970325 71.0402672,47.8411524 70.4061681,47.8411524 L67.3077527,47.8411524 L67.3077527,51.2939995 L70.4061681,51.2939995 Z M70.4733744,47.1293688 C70.8312094,47.1293688 71.1708321,47.1745328 71.4922424,47.2643445 C71.8136526,47.3546723 72.0945339,47.4919707 72.3346297,47.6757234 C72.5744689,47.8605084 72.7658273,48.0976835 72.9081918,48.3885392 C73.0505563,48.6791369 73.1218668,49.0210924 73.1218668,49.4141476 C73.1218668,49.9710834 72.9792458,50.4544665 72.6945168,50.8637808 C72.4097878,51.273095 71.9865421,51.5353039 71.4252926,51.6498912 L71.4252926,51.6744088 C71.7089955,51.7157015 71.943961,51.7913189 72.1301891,51.9015189 C72.3166738,52.0119769 72.4685292,52.1534046 72.5862685,52.3250275 C72.7037513,52.4971666 72.7889134,52.6956298 72.8414985,52.9206752 C72.8943401,53.1457207 72.9287128,53.3890897 72.9448731,53.6510405 C72.9530815,53.7981459 72.9612899,53.9782855 72.9694983,54.1909431 C72.9774502,54.4041168 72.9936105,54.6188391 73.0179792,54.8356259 C73.0423479,55.0524128 73.0810813,55.2570699 73.1339229,55.4495973 C73.1867644,55.6418666 73.2580749,55.7912947 73.3475978,55.8976235 L72.433387,55.8976235 C72.3843931,55.8158123 72.3459162,55.7154193 72.3176998,55.5969608 C72.2892269,55.4782441 72.2689624,55.3553983 72.2566498,55.2286812 C72.2443372,55.1019641 72.2343332,54.9767955 72.2263814,54.8542077 C72.218173,54.7313618 72.2099645,54.625033 72.2020127,54.5347051 C72.1855959,54.2237192 72.1591751,53.9147979 72.1224938,53.6079412 C72.0858125,53.3013427 72.0086022,53.027004 71.8908629,52.7854415 C71.7728671,52.5443952 71.6017732,52.3500612 71.3780943,52.2021816 C71.1544153,52.0550762 70.8473697,51.989524 70.4567011,52.005783 L67.3077527,52.005783 L67.3077527,55.8976235 L66.4825517,55.8976235 L66.4825517,47.1293688 L70.4733744,47.1293688 L70.4733744,47.1293688 Z" id="Fill-17" fill="#FFFFFF"></path>
            <path d="M78.5995583,51.3473731 C78.5094619,51.0825907 78.3814954,50.8477358 78.2166487,50.6428084 C78.0515544,50.4386419 77.8510652,50.2737869 77.6154285,50.149258 C77.3795442,50.0249827 77.1124728,49.9628451 76.8139666,49.9628451 C76.5072923,49.9628451 76.2362605,50.0249827 76.0003763,50.149258 C75.7644921,50.2737869 75.5642503,50.4386419 75.3991561,50.6428084 C75.2343094,50.8477358 75.1023825,51.084366 75.0043656,51.3532064 C74.9061011,51.6220468 74.841004,51.8972278 74.8098168,52.1779885 L78.7470788,52.1779885 C78.7391582,51.8893655 78.6901498,51.6124091 78.5995583,51.3473731 Z M74.9216947,53.669799 C74.996445,53.9634944 75.116491,54.2265015 75.2813377,54.4598347 C75.446432,54.6929142 75.6545942,54.886175 75.9063196,55.038856 C76.1577975,55.1915371 76.4602639,55.2681312 76.8142141,55.2681312 C77.3565251,55.2681312 77.7810177,55.1235661 78.087692,54.833675 C78.3941188,54.5442911 78.6062413,54.1582769 78.7243072,53.675886 L79.4641372,53.675886 C79.306716,54.3834941 79.0181106,54.930559 78.5980732,55.3175877 C78.1782834,55.7046164 77.5834987,55.8976235 76.8142141,55.8976235 C76.3350201,55.8976235 75.9211707,55.8108844 75.5716759,55.6384208 C75.222181,55.4654499 74.9375358,55.2280588 74.7179878,54.9262474 C74.4979446,54.6246896 74.3350781,54.2746899 74.2291405,53.8767554 C74.123203,53.47806 74.0702343,53.0580603 74.0702343,52.6154882 C74.0702343,52.2051261 74.123203,51.8033873 74.2291405,51.4090035 C74.3350781,51.0148733 74.4979446,50.6630982 74.7177402,50.3534245 C74.9375358,50.0434972 75.222181,49.7944394 75.5714283,49.604983 C75.9206756,49.4162875 76.3347725,49.3214325 76.8139666,49.3214325 C77.3003386,49.3214325 77.7164156,49.4218672 78.0619502,49.6232439 C78.4072372,49.8243669 78.6879221,50.087374 78.9037574,50.4130259 C79.1195928,50.7386779 79.2747863,51.1127718 79.3690905,51.5345469 C79.4633947,51.9573364 79.5022549,52.3851985 79.4866613,52.8196547 L74.8098168,52.8196547 C74.8098168,53.0928067 74.8471919,53.3763572 74.9216947,53.669799 L74.9216947,53.669799 Z" id="Fill-18" fill="#FFFFFF"></path>
            <path d="M84.2678696,50.360526 C83.9912182,50.0952363 83.603557,49.9628451 83.1053849,49.9628451 C82.7494051,49.9628451 82.4368315,50.0394392 82.1681628,50.1918667 C81.8992446,50.3445477 81.6757283,50.5459244 81.4978631,50.7949822 C81.3197485,51.0442936 81.1855389,51.3273369 81.0942364,51.6448729 C81.0034329,51.9624089 80.9580311,52.2860319 80.9580311,52.6154882 C80.9580311,52.9449444 81.0034329,53.2683138 81.0942364,53.5861034 C81.1855389,53.903893 81.3197485,54.1869363 81.4978631,54.4362477 C81.6757283,54.6853055 81.8992446,54.886175 82.1681628,55.0391096 C82.4368315,55.1915371 82.7494051,55.2681312 83.1053849,55.2681312 C83.3346389,55.2681312 83.5521682,55.2240008 83.7577234,55.1352327 C83.9635281,55.0472256 84.1453847,54.924472 84.3035425,54.7672258 C84.4617003,54.6107404 84.592168,54.4243275 84.6949456,54.2069725 C84.7979727,53.9898712 84.8610861,53.7522265 84.8850343,53.4950527 L85.6324172,53.4950527 C85.5296396,54.2505957 85.25673,54.8402692 84.8136887,55.2633124 C84.3706473,55.6863555 83.801379,55.8976235 83.1053849,55.8976235 C82.6386448,55.8976235 82.2252892,55.8108844 81.8655675,55.6384208 C81.5055964,55.4654499 81.2030011,55.2300878 80.9585301,54.932588 C80.7135601,54.6348345 80.5279617,54.2871174 80.4017348,53.888422 C80.2755079,53.4904875 80.2126439,53.0661762 80.2126439,52.6154882 C80.2126439,52.1648001 80.2755079,51.740996 80.4017348,51.3425543 C80.5279617,50.9443661 80.7135601,50.596649 80.9585301,50.298642 C81.2030011,50.0013958 81.5055964,49.763751 81.8655675,49.5864686 C82.2252892,49.4099469 82.6386448,49.3214325 83.1053849,49.3214325 C83.7617148,49.3214325 84.3172628,49.4984614 84.7722783,49.85328 C85.2270443,50.2075913 85.4977086,50.7424822 85.5847703,51.4579527 L84.8373874,51.4579527 C84.7346098,50.9920473 84.5447705,50.6263229 84.2678696,50.360526" id="Fill-19" fill="#FFFFFF"></path>
            <polygon id="Fill-20" fill="#FFFFFF" points="86.3550536 55.8976235 87.07769 55.8976235 87.07769 47.1293688 86.3550536 47.1293688"></polygon>
            <path d="M92.470345,52.3248362 C92.4218241,52.4136042 92.328847,52.4777709 92.1914137,52.5180969 C92.0542344,52.558423 91.9333134,52.5863215 91.8283966,52.6022998 C91.5052632,52.6588577 91.1719683,52.709075 90.828766,52.7532054 C90.4858177,52.7975895 90.1725916,52.8637851 89.8901039,52.9520459 C89.6073621,53.0410676 89.3751734,53.1676254 89.1932838,53.3324804 C89.0116483,53.4970817 88.9207035,53.7324439 88.9207035,54.037806 C88.9207035,54.2310667 88.9593169,54.4015014 89.0360357,54.5503781 C89.1127545,54.6992548 89.215639,54.8278417 89.3446891,54.9363923 C89.4739933,55.044943 89.6236204,55.1273704 89.7930622,55.1836747 C89.9627581,55.239979 90.1362645,55.2681312 90.3140896,55.2681312 C90.6047064,55.2681312 90.8836377,55.2240008 91.1498672,55.1352327 C91.4163506,55.0472256 91.6485393,54.9181314 91.8461791,54.7494721 C92.044073,54.5808128 92.2018292,54.3751246 92.3189397,54.1341827 C92.4360501,53.8929872 92.4944784,53.6195816 92.4944784,53.3142195 L92.4944784,52.3248362 L92.470345,52.3248362 Z M88.6600628,50.4693302 C88.7888589,50.2040406 88.9643976,49.9869393 89.1856628,49.8175191 C89.40769,49.6480989 89.6675686,49.5230628 89.9658065,49.4424107 C90.2637905,49.3620122 90.5940369,49.3214325 90.9568,49.3214325 C91.2309046,49.3214325 91.5045011,49.3475557 91.7791137,49.4000556 C92.0529642,49.452302 92.2988708,49.5509613 92.5163254,49.6952728 C92.73378,49.8400916 92.911351,50.0434972 93.0485303,50.3047289 C93.1852015,50.5662142 93.2535372,50.9063227 93.2535372,51.3242934 L93.2535372,54.6307766 C93.2535372,54.9363923 93.4024021,55.0895806 93.7006401,55.0895806 C93.7895526,55.0895806 93.8698279,55.0733487 93.9427361,55.040885 L93.9427361,55.6805222 C93.8535696,55.6965005 93.7753266,55.708928 93.7067369,55.7167903 C93.6384013,55.7246526 93.5517751,55.728457 93.4471124,55.728457 C93.2535372,55.728457 93.0988294,55.702841 92.982227,55.6508483 C92.8653705,55.5983484 92.7744257,55.5240368 92.7099007,55.4268992 C92.6456296,55.3307761 92.6034597,55.2158849 92.5831368,55.08324 C92.563068,54.9505952 92.5529066,54.8040011 92.5529066,54.6426969 L92.5290272,54.6426969 C92.3915939,54.8438199 92.2526363,55.0231314 92.1111384,55.1798704 C91.9704026,55.3363558 91.8131545,55.4674789 91.6399021,55.5719716 C91.4663957,55.6764642 91.2690099,55.7571164 91.0472367,55.813167 C90.8252095,55.8692177 90.5610123,55.8976235 90.2546452,55.8976235 C89.9642823,55.8976235 89.6924641,55.8633844 89.4384283,55.7949062 C89.1843926,55.726428 88.9623654,55.6183846 88.7726006,55.4695079 C88.58309,55.3208848 88.433971,55.1319356 88.3249897,54.9024068 C88.2162624,54.6733852 88.1616447,54.4020086 88.1616447,54.0880233 C88.1616447,53.6540744 88.2584323,53.3142195 88.4522616,53.0689661 C88.6458368,52.8237126 88.9021589,52.6365389 89.2207197,52.5082056 C89.5392805,52.3791115 89.8984871,52.2890753 90.2980853,52.2365754 C90.6974295,52.184329 91.1023625,52.1338581 91.5141544,52.0856697 C91.6754671,52.0694378 91.816711,52.0496552 91.937886,52.0258147 C92.058807,52.0017205 92.1596592,51.959619 92.2404426,51.8990031 C92.3209719,51.8383873 92.3834647,51.7562134 92.427921,51.6517207 C92.4726313,51.5469744 92.4944784,51.4105252 92.4944784,51.2413587 C92.4944784,50.9839313 92.4523084,50.7731706 92.3674605,50.6085693 C92.2828666,50.4432071 92.1657561,50.3125912 92.0163831,50.2164681 C91.8670101,50.1193305 91.6937577,50.0531349 91.4958638,50.0171204 C91.298224,49.9808523 91.0863582,49.9628451 90.8600124,49.9628451 C90.3763283,49.9628451 89.9805406,50.0772291 89.6739195,50.3065043 C89.3670443,50.5355259 89.2054776,50.9035328 89.1894733,51.410018 L88.4304145,51.410018 C88.4545479,51.0486052 88.5310127,50.7346199 88.6600628,50.4693302 L88.6600628,50.4693302 Z" id="Fill-21" fill="#FFFFFF"></path>
            <path d="M97.1760239,49.5069415 L97.1760239,50.5843009 L97.2131336,50.5843009 C97.4155733,50.1885309 97.6814834,49.8787412 98.010096,49.6562346 C98.3379409,49.4329464 98.7579201,49.3214325 99.26901,49.3214325 C99.6823351,49.3214325 100.057271,49.4246089 100.393561,49.6314827 C100.730108,49.838096 100.955325,50.1515333 101.068702,50.5730974 C101.255018,50.1515333 101.531165,49.838096 101.895608,49.6314827 C102.260306,49.4246089 102.64983,49.3214325 103.063411,49.3214325 C104.450034,49.3214325 105.143601,50.0686796 105.143601,51.5629131 L105.143601,55.8976235 L104.37863,55.8976235 L104.37863,51.6017346 C104.37863,51.0738676 104.269092,50.6715839 104.050017,50.3951442 C103.830942,50.1187045 103.445513,49.9803543 102.893986,49.9803543 C102.561279,49.9803543 102.285387,50.0441882 102.066312,50.1718559 C101.847237,50.2997842 101.67295,50.4714843 101.542938,50.685914 C101.413438,50.9003437 101.322071,51.1457784 101.269094,51.4224786 C101.216117,51.6991789 101.190012,51.9857799 101.190012,52.2828028 L101.190012,55.8976235 L100.425297,55.8976235 L100.425297,51.564737 C100.425297,51.3503073 100.402775,51.1457784 100.358243,50.9519318 C100.313968,50.7580853 100.240772,50.5889907 100.139168,50.4443875 C100.03782,50.2997842 99.9019221,50.1869676 99.7314735,50.1041139 C99.5612808,50.0212601 99.3542343,49.9803543 99.1105901,49.9803543 C98.7865842,49.9803543 98.5042946,50.0400195 98.2652571,50.1598708 C98.0257077,50.2797221 97.8309458,50.4443875 97.6809715,50.654909 C97.5309972,50.8649094 97.4194122,51.1129495 97.3462166,51.3972056 C97.2732769,51.6827645 97.236679,51.9941174 97.236679,52.3323066 L97.236679,55.8976235 L96.4719636,55.8976235 L96.4719636,49.5069415 L97.1760239,49.5069415" id="Fill-23" fill="#FFFFFF"></path>
            <path d="M110.756749,51.3473731 C110.666655,51.0825907 110.538692,50.8477358 110.37385,50.6428084 C110.208761,50.4386419 110.008525,50.2737869 109.7724,50.149258 C109.537018,50.0249827 109.269706,49.9628451 108.970961,49.9628451 C108.664543,49.9628451 108.393519,50.0249827 108.157642,50.149258 C107.922012,50.2737869 107.721281,50.4386419 107.556439,50.6428084 C107.39135,50.8477358 107.259922,51.084366 107.16166,51.3532064 C107.063646,51.6220468 106.998303,51.8972278 106.967117,52.1779885 L110.904513,52.1779885 C110.896345,51.8893655 110.84709,51.6124091 110.756749,51.3473731 Z M107.078991,53.669799 C107.15374,53.9634944 107.273782,54.2265015 107.438872,54.4598347 C107.603714,54.6929142 107.81187,54.886175 108.063588,55.038856 C108.315306,55.1915371 108.617516,55.2681312 108.971704,55.2681312 C109.513504,55.2681312 109.938232,55.1235661 110.244897,54.833675 C110.551315,54.5442911 110.763432,54.1582769 110.881742,53.675886 L111.621303,53.675886 C111.463886,54.3834941 111.175537,54.930559 110.755264,55.3175877 C110.335734,55.7046164 109.740719,55.8976235 108.971704,55.8976235 C108.492276,55.8976235 108.078439,55.8108844 107.729201,55.6384208 C107.379717,55.4654499 107.094832,55.2280588 106.875043,54.9262474 C106.655501,54.6246896 106.492392,54.2746899 106.386705,53.8767554 C106.280523,53.47806 106.227555,53.0580603 106.227555,52.6154882 C106.227555,52.2051261 106.280523,51.8033873 106.386705,51.4090035 C106.492392,51.0148733 106.655501,50.6630982 106.875043,50.3534245 C107.094832,50.0434972 107.379222,49.7944394 107.728706,49.604983 C108.078191,49.4162875 108.492276,49.3214325 108.970961,49.3214325 C109.457814,49.3214325 109.873879,49.4218672 110.219156,49.6232439 C110.564928,49.8243669 110.845358,50.087374 111.060939,50.4130259 C111.277016,50.7386779 111.431957,51.1127718 111.526259,51.5345469 C111.62056,51.9573364 111.65942,52.3851985 111.644074,52.8196547 L106.967117,52.8196547 C106.967117,53.0928067 107.004738,53.3763572 107.078991,53.669799 L107.078991,53.669799 Z" id="Fill-24" fill="#FFFFFF"></path>
            <path d="M113.247905,53.5800967 C113.324936,53.89679 113.446347,54.179335 113.612651,54.4282377 C113.77921,54.6766344 113.991681,54.8789943 114.251084,55.0353174 C114.510487,55.1913874 114.822944,55.2698019 115.187689,55.2698019 C115.592991,55.2698019 115.935801,55.1913874 116.215354,55.0353174 C116.495162,54.8789943 116.722172,54.6766344 116.896382,54.4282377 C117.070593,54.179335 117.196596,53.89679 117.273626,53.5800967 C117.350657,53.2636564 117.388917,52.9444337 117.388917,52.6241991 C117.388917,52.3034587 117.350657,51.9847418 117.273626,51.6685545 C117.196596,51.3516083 117.070593,51.0685573 116.896382,50.8201606 C116.722172,50.5717638 116.495162,50.3696568 116.215354,50.2133338 C115.935801,50.0567578 115.592991,49.9785963 115.187689,49.9785963 C114.822944,49.9785963 114.510487,50.0567578 114.251084,50.2133338 C113.991681,50.3696568 113.77921,50.5717638 113.612651,50.8201606 C113.446347,51.0685573 113.324936,51.3516083 113.247905,51.6685545 C113.170875,51.9847418 113.13236,52.3034587 113.13236,52.6241991 C113.13236,52.9444337 113.170875,53.2636564 113.247905,53.5800967 Z M117.447837,55.7289059 L117.449368,54.5486418 L117.424116,54.5486418 C117.343005,54.7492311 117.223888,54.9338845 117.066002,55.102602 C116.90786,55.2713196 116.727528,55.4139833 116.52526,55.5303403 C116.322482,55.6469502 116.106185,55.7370003 115.87535,55.8012496 C115.644259,55.8657518 115.415719,55.8976235 115.188454,55.8976235 C114.710459,55.8976235 114.29572,55.8111147 113.943218,55.6391087 C113.59097,55.4665969 113.297643,55.2298358 113.062217,54.9288255 C112.82781,54.6280681 112.653344,54.2789972 112.540095,53.8821189 C112.426845,53.4844816 112.369965,53.0655966 112.369965,52.6241991 C112.369965,52.1830545 112.426845,51.7636636 112.540095,51.3665323 C112.653344,50.9699069 112.82781,50.6205831 113.062982,50.3195727 C113.297643,50.0188153 113.591481,49.7800306 113.943983,49.6032187 C114.296485,49.4271656 114.711734,49.3388861 115.189985,49.3388861 C115.424901,49.3388861 115.653697,49.3672164 115.876625,49.4233713 C116.099298,49.4790203 116.307943,49.5655291 116.502559,49.6818861 C116.696665,49.798243 116.86909,49.9406538 117.019325,50.1088655 C117.168794,50.2773301 117.284594,50.4738722 117.365451,50.6982387 L117.388917,50.6982387 L117.388917,47.1293688 L118.151057,47.1293688 L118.151057,55.7289059 L117.447837,55.7289059 L117.447837,55.7289059 Z" id="Fill-25" fill="#FFFFFF"></path>
            <g transform="translate(20.723684, 20.723684) rotate(-360.000000) translate(-20.723684, -20.723684) translate(-0.000000, 0.000000)" stroke-width="1">
                <g>
                    <g>
                        <path d="M30.0696594,22.755418 C36.3533946,22.755418 41.4473684,17.6614441 41.4473684,11.377709 C41.4473684,9.29565767 41.4473684,5.50308801 41.4473684,0 C35.9693346,0 32.1767649,0 30.0696594,0 C23.7859243,0 18.6919505,5.09397382 18.6919505,11.377709 C18.6919505,17.6614441 23.7859243,22.755418 30.0696594,22.755418 Z" id="Oval" fill="#63B44A"></path>
                        <path d="M30.0696594,41.4473684 C36.3533946,41.4473684 41.4473684,36.3533946 41.4473684,30.0696594 C41.4473684,27.9876081 41.4473684,24.1950385 41.4473684,18.6919505 C35.9693346,18.6919505 32.1767649,18.6919505 30.0696594,18.6919505 C23.7859243,18.6919505 18.6919505,23.7859243 18.6919505,30.0696594 C18.6919505,36.3533946 23.7859243,41.4473684 30.0696594,41.4473684 Z" id="Oval-Copy-2" fill="#EA882D" transform="translate(30.069659, 30.069659) scale(1, -1) translate(-30.069659, -30.069659) "></path>
                        <path d="M11.377709,22.755418 C17.6614441,22.755418 22.755418,17.6614441 22.755418,11.377709 C22.755418,9.29565767 22.755418,5.50308801 22.755418,0 C17.2773841,0 13.4848144,0 11.377709,0 C5.09397382,0 0,5.09397382 0,11.377709 C0,17.6614441 5.09397382,22.755418 11.377709,22.755418 Z" id="Oval-Copy" fill="#0080AD" transform="translate(11.377709, 11.377709) scale(-1, 1) translate(-11.377709, -11.377709) "></path>
                        <path d="M11.377709,41.4473684 C17.6614441,41.4473684 22.755418,36.3533946 22.755418,30.0696594 C22.755418,27.9876081 22.755418,24.1950385 22.755418,18.6919505 C17.2773841,18.6919505 13.4848144,18.6919505 11.377709,18.6919505 C5.09397382,18.6919505 0,23.7859243 0,30.0696594 C0,36.3533946 5.09397382,41.4473684 11.377709,41.4473684 Z" id="Oval-Copy-3" fill="#7E327F" transform="translate(11.377709, 30.069659) scale(-1, -1) translate(-11.377709, -30.069659) "></path>
                        <path d="M20.6998394,23.5671674 C22.0061483,25.3981528 22.7771335,27.643022 22.7771335,30.06984 C22.7771335,32.4961582 22.0068925,34.7397777 20.7008317,36.5702633 C19.3945228,34.7397777 18.6225453,32.4949086 18.6225453,30.0683404 C18.6225453,27.6412725 19.3945228,25.3981528 20.6998394,23.5671674" id="Fill-4" fill="#541A5C"></path>
                        <path d="M30.0796565,18.6858483 C32.4869728,18.6858483 34.7132693,19.4347052 36.5304112,20.7011862 C34.7132693,21.9693533 32.4859809,22.7191737 30.0786647,22.7191737 C27.6711004,22.7191737 25.444804,21.9693533 23.6289019,20.7019088 C25.444804,19.4347052 27.6720923,18.6858483 30.0796565,18.6858483 Z" id="Fill-7" fill="#658235"></path>
                        <path d="M17.7485783,20.7067159 C15.9425016,22.0482426 13.728474,22.8406734 11.3354901,22.8406734 C8.94250633,22.8406734 6.72921816,22.0482426 4.92412746,20.7087544 C6.72995764,19.3662085 8.94324582,18.5740325 11.3354901,18.5740325 C13.7294599,18.5740325 15.9425016,19.3662085 17.7485783,20.7067159" id="Fill-10" fill="#25367F"></path>
                        <path d="M20.7236842,17.8132299 C19.2821675,15.9963744 18.42964,13.7688292 18.42964,11.3622273 C18.42964,8.95339335 19.2813457,6.72808015 20.7236842,4.91172065 C22.1662967,6.72808015 23.0177284,8.95438535 23.0177284,11.3622273 C23.0177284,13.7698212 22.1662967,15.9963744 20.7236842,17.8132299" id="Fill-11" fill="#006E39"></path>
                    </g>
                </g>
            </g>
        </g>
    </g>
</svg>